<?xml version="1.0" encoding="UTF-8" standalone="no"?>
<!-- Created with Inkscape (http://www.inkscape.org/) -->

<svg
   width="210mm"
   height="297mm"
   viewBox="0 0 210 297"
   version="1.1"
   id="svg5"
   inkscape:version="1.2.2 (732a01da63, 2022-12-09)"
   sodipodi:docname="whisper_icon.svg"
   xmlns:inkscape="http://www.inkscape.org/namespaces/inkscape"
   xmlns:sodipodi="http://sodipodi.sourceforge.net/DTD/sodipodi-0.dtd"
   xmlns="http://www.w3.org/2000/svg"
   xmlns:svg="http://www.w3.org/2000/svg">
  <sodipodi:namedview
     id="namedview7"
     pagecolor="#ffffff"
     bordercolor="#000000"
     borderopacity="0.25"
     inkscape:showpageshadow="2"
     inkscape:pageopacity="0.0"
     inkscape:pagecheckerboard="0"
     inkscape:deskcolor="#d1d1d1"
     inkscape:document-units="mm"
     showgrid="false"
     inkscape:zoom="1.0444209"
     inkscape:cx="179.04659"
     inkscape:cy="519.90534"
     inkscape:window-width="1920"
     inkscape:window-height="1009"
     inkscape:window-x="-8"
     inkscape:window-y="-8"
     inkscape:window-maximized="1"
     inkscape:current-layer="svg5" />
  <defs
     id="defs2" />
  <g
     inkscape:label="Layer 1"
     inkscape:groupmode="layer"
     id="layer1">
    <circle
       style="fill:#75f0d1;fill-opacity:0;fill-rule:evenodd;stroke:#75f0d1;stroke-width:7.229;stroke-linecap:round;stroke-miterlimit:4;stroke-dasharray:none;stroke-dashoffset:0;stroke-opacity:1;paint-order:normal"
       id="path8640"
       cx="98.337906"
       cy="144.16481"
       r="60" />
    <path
       style="fill:#ffffff;fill-opacity:0.992958;fill-rule:evenodd;stroke:#ffffff;stroke-width:4.729;stroke-linecap:round;stroke-miterlimit:4;stroke-dasharray:none;stroke-dashoffset:0;stroke-opacity:1;paint-order:normal"
       id="path23958"
       d="m 148.08735,177.6532 c 1.94419,-2.21099 3.18471,-4.85177 4.44366,-7.48262 1.10966,-2.39676 2.06795,-4.8742 2.6859,-7.44647 0.39357,-1.63831 0.43943,-2.18481 0.69114,-3.85105 0.42662,-3.58267 0.58984,-7.19069 0.69205,-10.79521 0.0701,-3.17298 0.0986,-6.34691 0.11252,-9.52061 0.0526,-2.48768 -0.12158,-4.969 -0.3728,-7.44172 -0.20577,-1.68479 -0.20456,-3.38999 -0.51137,-5.0608 -0.39444,-2.09545 -1.43538,-3.98035 -2.44465,-5.83202 -1.47596,-2.59638 -3.19295,-5.04389 -4.98338,-7.43047 -2.0869,-2.43765 -3.83157,-5.12402 -5.54184,-7.83013 -1.64913,-2.76452 -3.4699,-5.412895 -5.45769,-7.943505 -1.17081,-1.466011 -2.45499,-2.848226 -3.98302,-3.948437 -1.28878,-0.927947 -4.59443,-2.670551 -4.97638,-2.885795 -1.58666,-0.657251 -3.31947,-0.614561 -5.00319,-0.696312 -0.67152,-0.114316 -1.40947,-0.04333 -2.05365,-0.309126 -0.0796,-0.03283 -0.27942,-0.201046 -0.20803,-0.152969 3.615,2.434466 2.15347,1.542116 3.64341,2.443999 2.37795,0.766895 4.74377,1.602899 7.01522,2.649799 0.54168,0.249659 1.06974,0.527881 1.6046,0.791819 0.49976,0.274137 1.99915,1.096333 1.49927,0.822415 -0.59301,-0.324951 -1.11534,-0.844135 -1.77866,-0.975514 -0.50836,-0.100687 0.86559,0.570892 1.28344,0.877428 1.38313,1.014655 2.54558,2.19961 3.72344,3.438681 2.4549,2.699457 4.48313,5.742467 6.36316,8.858697 2.27671,3.60301 3.95919,7.51737 5.64554,11.41724 1.66595,4.04228 3.44023,8.05323 4.84282,12.19832 0.30363,0.89733 0.57218,1.80615 0.85827,2.70923 0.93285,3.16152 1.72504,6.36638 2.2051,9.6299 0.24455,1.66249 0.27877,2.28388 0.43154,3.95045 0.13657,3.05793 0.37216,6.14116 0.18126,9.20341 -0.0365,0.58522 -0.11375,1.16719 -0.17062,1.75078 -0.457,3.91344 -1.64136,7.68532 -2.97625,11.37547 -1.0005,2.63219 -2.15272,5.21241 -3.55661,7.65624 -0.85196,1.48304 -1.08243,1.77033 -2.02037,3.15489 -0.96537,1.44462 -2.12786,2.72534 -3.36205,3.93973 0,0 3.25676,1.99071 3.25676,1.99071 v 0 c 1.19641,-1.27156 2.33212,-2.59758 3.2738,-4.07414 0.72985,-1.11645 1.35391,-2.03219 2.01049,-3.20244 1.38512,-2.46875 2.53478,-5.07893 3.55678,-7.71471 1.34435,-3.70819 2.61295,-7.48859 3.07789,-11.42349 0.0602,-0.59134 0.1404,-1.18099 0.18051,-1.77404 0.20842,-3.08113 -0.0699,-6.18183 -0.19313,-9.25934 -0.06,-0.65965 -0.10436,-1.3209 -0.17997,-1.97894 -0.45846,-3.98975 -1.42634,-7.89406 -2.56494,-11.73844 -0.56316,-1.80508 -1.09346,-3.58499 -1.74614,-5.36067 -0.28725,-0.78149 -0.61591,-1.54714 -0.92597,-2.31987 -0.97083,-2.41944 -1.93777,-4.84102 -2.96812,-7.23594 -1.61885,-3.89752 -3.25019,-7.80198 -5.4823,-11.39939 -1.88221,-3.13364 -3.92443,-6.18784 -6.34517,-8.9359 -0.81681,-0.88163 -1.53469,-1.698962 -2.43098,-2.501224 -2.52217,-2.257562 -5.62219,-3.747301 -8.56113,-5.372131 -2.86941,-1.377522 -5.82774,-2.573015 -8.87048,-3.514085 -1.84628,0.06851 -0.86102,-0.08613 2.57384,2.386116 0.18994,0.13671 1.22563,0.18443 1.39566,0.199178 0.28713,0.0249 0.57468,0.04458 0.86202,0.06687 1.66218,0.08646 3.36698,0.09753 4.90401,0.823479 -0.81606,-0.489607 -1.63055,-0.981824 -2.44817,-1.468822 -0.30971,-0.184475 0.62538,0.35995 0.92444,0.56124 1.57595,1.06073 2.90305,2.424604 4.09641,3.893616 2.00986,2.499027 3.79363,5.160803 5.45885,7.900883 1.71234,2.69671 3.4144,5.40772 5.49436,7.84386 1.81192,2.35936 3.5308,4.79474 5.01049,7.37884 0.96319,1.8112 1.97984,3.651 2.38791,5.68144 0.36282,1.66013 0.3287,3.36967 0.56593,5.04955 0.2899,2.46798 0.52152,4.94637 0.45247,7.43525 0.008,3.18048 0.0269,6.36133 -0.0498,9.54127 -0.10117,3.59546 -0.24583,7.19566 -0.6401,10.77248 -0.24462,1.64461 -0.29043,2.19484 -0.67432,3.81203 -0.60643,2.55464 -1.53395,5.01846 -2.63711,7.39748 -1.2382,2.56964 -2.54409,5.19408 -4.63342,7.19182 0,0 3.34684,2.08172 3.34684,2.08172 z" />
    <path
       style="fill:#ffffff;fill-opacity:0.992958;fill-rule:evenodd;stroke:#ffffff;stroke-width:4.729;stroke-linecap:round;stroke-miterlimit:4;stroke-dasharray:none;stroke-dashoffset:0;stroke-opacity:1;paint-order:normal"
       id="path23960"
       d="m 152.40399,127.21374 c -0.84319,-2.12113 -1.40574,-4.338 -2.10716,-6.5072 -0.85824,-2.407 -2.41389,-4.40078 -4.06074,-6.31152 -1.21869,-1.34807 -2.47652,-2.66151 -3.76371,-3.94432 -1.00857,-0.90287 -1.8263,-1.96278 -2.5427,-3.1034 -0.82061,-1.25587 -1.80363,-2.40022 -2.75661,-3.55695 -1.44164,-1.69624 -3.05895,-3.23584 -4.6694,-4.769623 -2.1077,-1.867583 -4.25879,-3.685569 -6.38627,-5.530514 -1.74882,-1.535102 -3.59888,-2.96332 -5.63478,-4.099936 -4.70884,-2.628879 -3.15038,-1.948442 -6.16427,-3.124742 -1.32223,-0.492189 -2.67032,-0.916316 -3.98551,-1.427843 -0.23913,-0.09301 -0.92804,-0.433697 -0.70848,-0.300921 3.21345,1.943362 3.27502,0.562187 3.07003,2.135439 2.19151,0.579826 4.22916,1.582748 6.31935,2.436471 2.01677,0.90206 4.15319,1.545651 6.11154,2.58069 0.3809,0.201322 0.7438,0.435031 1.11569,0.652545 -0.7079,-0.391417 -1.37662,-0.864106 -2.12372,-1.174247 -0.37875,-0.157232 0.67667,0.463915 1.00488,0.709781 0.69411,0.519965 1.46257,1.124704 1.93587,1.87052 0.0769,0.121256 0.10595,0.26697 0.15893,0.400452 -0.0297,0.07854 -0.0249,0.181409 -0.089,0.235627 -0.24108,0.203925 -1.00028,0.05828 -1.25843,0.02447 0,0 3.13767,2.314311 3.13767,2.314311 v 0 c 0.53534,0.01005 1.17247,0.05873 1.55292,-0.42481 0.10733,-0.136409 0.12918,-0.32221 0.19376,-0.483317 -0.0478,-0.181446 -0.056,-0.378328 -0.14343,-0.544341 -0.38451,-0.729887 -1.34457,-1.516866 -1.97769,-2.005192 -1.81,-1.396077 -2.84427,-1.823937 -5.31785,-3.290088 -0.38176,-0.212154 -0.7559,-0.438627 -1.14527,-0.636461 -1.96326,-0.997505 -4.08192,-1.646899 -6.0896,-2.542257 -1.30402,-0.545002 -2.59019,-1.138385 -3.91146,-1.641059 -0.50418,-0.191813 -1.51318,-0.555109 -2.07816,-0.672994 -0.21749,-0.04538 -0.44217,-0.04396 -0.66325,-0.06594 -0.12202,0.151448 -0.51975,0.335169 -0.36606,0.454348 2.4726,1.917303 5.32374,2.638843 8.17466,3.688056 0.48793,0.197792 1.65125,1.085377 1.46379,0.593379 -0.23439,-0.615191 -1.29605,-0.529614 -1.6508,-1.084191 -0.31662,-0.494978 1.02742,0.571735 1.52396,0.885896 1.45697,0.921819 2.80466,2.004801 4.10069,3.137855 2.10836,1.83805 4.22919,3.661717 6.34193,5.494674 1.59594,1.510763 3.18449,3.041582 4.62604,4.701912 0.94187,1.13414 1.88236,2.27778 2.72433,3.48764 0.72843,1.16521 1.50138,2.29345 2.54954,3.20325 1.30554,1.28639 2.57752,2.60703 3.8318,3.94336 1.65989,1.86857 3.2432,3.82033 4.14589,6.18455 0.72157,2.13006 1.29292,4.30568 1.92353,6.46388 0,0 3.5875,1.64276 3.5875,1.64276 z" />
    <path
       style="fill:#ffffff;fill-opacity:0.992958;fill-rule:evenodd;stroke:#ffffff;stroke-width:4.729;stroke-linecap:round;stroke-miterlimit:4;stroke-dasharray:none;stroke-dashoffset:0;stroke-opacity:1;paint-order:normal"
       id="path23962"
       d="m 126.61049,98.092804 c -2.22599,-0.863259 -4.31005,-2.034194 -6.4343,-3.113887 -0.97248,-0.522314 -1.98366,-0.969449 -2.95866,-1.48677 -0.45477,-0.241295 -1.79337,-1.012158 -1.34614,-0.757142 0.65589,0.374009 1.2949,0.780385 1.97218,1.114123 0.0792,0.03901 -1.86798,-1.172088 -1.90319,-1.194033 -1.6096,-0.922292 -3.16097,-2.011735 -4.89966,-2.695659 -0.97936,-0.385234 -1.92727,-0.714513 -2.89417,-1.146168 -1.23016,-0.644046 -3.67496,-1.961567 1.89233,1.117603 0.14156,0.0783 -0.27055,-0.177826 -0.40014,-0.274672 -0.32685,-0.244268 -0.36122,-0.299535 -0.64692,-0.58647 -0.59025,-0.636963 -1.0733,-1.334455 -1.31221,-2.173631 0.0264,-0.103325 0.016,-0.224084 0.0792,-0.309976 0.18107,-0.246052 0.71978,-0.45027 0.95635,-0.518096 1.36046,-0.390067 2.11068,0.07105 3.34526,0.626769 -0.57103,-0.304139 -1.30086,-1.411063 -1.71307,-0.912416 -0.40447,0.489289 1.02993,0.742902 1.53134,1.132253 1.58039,1.227214 3.0954,2.553835 4.60312,3.868888 0.83024,0.72032 0.44543,0.378902 1.15716,1.021178 0,0 3.58818,1.463733 3.58818,1.463733 v 0 c -0.75485,-0.674592 -0.34577,-0.319672 -1.23194,-1.059315 -1.08262,-0.928627 -2.18168,-1.837624 -3.27837,-2.749629 -0.48124,-0.400198 -2.40333,-2.011929 -2.93192,-2.345873 -1.5188,-0.95954 -3.09972,-1.817052 -4.64958,-2.725578 -0.48223,-0.185521 -0.94517,-0.432316 -1.4467,-0.556562 -1.01974,-0.252627 -2.69717,-0.104931 -3.3684,0.867119 -0.10089,0.146116 -0.11925,0.33451 -0.17888,0.501764 0.20021,0.926851 0.60745,1.644811 1.23634,2.352767 1.48712,1.77582 3.77114,2.637833 5.80773,3.665035 0.94499,0.402812 1.92182,0.726056 2.86537,1.129686 0.26222,0.112176 1.01427,0.5182 0.77429,0.364083 -0.79298,-0.509254 -1.62509,-0.954852 -2.43763,-1.43228 3.48906,2.124385 6.97391,4.265996 10.6735,6.011312 2.19703,1.132972 4.36073,2.399898 6.72053,3.16648 0,0 -3.17097,-2.364636 -3.17097,-2.364636 z" />
    <path
       style="fill:#ffffff;fill-opacity:0.992958;fill-rule:evenodd;stroke:#ffffff;stroke-width:4.729;stroke-linecap:round;stroke-miterlimit:4;stroke-dasharray:none;stroke-dashoffset:0;stroke-opacity:1;paint-order:normal"
       id="path23966"
       d="m 95.793138,75.032824 c 1.565966,1.259991 3.166687,2.473976 4.830182,3.602223 0.99674,0.633116 2.01171,1.27518 2.67068,2.277255 0.30419,0.556877 0.34304,1.179576 0.35777,1.799572 -0.0688,0.686982 -0.25512,1.362125 -0.41156,2.034831 -0.20769,0.880673 -0.34332,1.776219 -0.53121,2.660668 -0.17445,0.774642 -0.58982,1.452721 -1.0435,2.092688 -0.60869,0.752049 -1.33578,1.374055 -2.141001,1.903047 -0.566606,0.373846 -1.200047,0.568523 -1.851015,0.730269 0,0 3.222186,2.212623 3.222186,2.212623 v 0 c 0.67647,-0.199909 1.33279,-0.438518 1.92445,-0.833758 0.83174,-0.567465 1.57713,-1.241965 2.22033,-2.019239 0.49197,-0.679723 0.92956,-1.40662 1.12933,-2.230678 0.18451,-0.880867 0.2923,-1.777736 0.53048,-2.64813 0.17502,-0.700162 0.34132,-1.408544 0.4672,-2.1174 -0.004,-0.674335 -0.0192,-1.35346 -0.28647,-1.985745 -0.56951,-1.137971 -1.64966,-1.83624 -2.70668,-2.486343 -1.64808,-1.083037 -3.22961,-2.26246 -4.74322,-3.5273 0,0 -3.637952,-1.464583 -3.637952,-1.464583 z" />
    <path
       style="fill:#ffffff;fill-opacity:0.992958;fill-rule:evenodd;stroke:#ffffff;stroke-width:4.729;stroke-linecap:round;stroke-miterlimit:4;stroke-dasharray:none;stroke-dashoffset:0;stroke-opacity:1;paint-order:normal"
       id="path23968"
       d="m 102.76855,84.766705 c -0.11513,0.0011 -0.23095,0.01577 -0.34537,0.003 -0.32494,-0.03622 -0.46964,-0.103473 -0.74954,-0.268677 -0.11778,-0.06951 -0.45947,-0.296161 -0.3399,-0.229788 2.91617,1.61866 3.97509,2.428545 2.67631,1.461847 -0.61168,-0.499769 -1.22556,-0.993624 -1.86889,-1.452348 -0.60935,-0.415859 -1.15631,-0.9104 -1.71106,-1.393955 -0.459789,-0.403161 -0.796183,-0.927436 -1.135672,-1.431544 -0.246476,-0.339717 -0.119407,-0.178776 -0.379503,-0.484155 0,0 -3.634827,-1.537055 -3.634827,-1.537055 v 0 c 0.259498,0.297074 0.124386,0.152815 0.405506,0.43262 0.324275,0.541327 0.700436,1.056254 1.092342,1.548479 0.584722,0.454523 1.094092,1.002081 1.708007,1.422025 0.643816,0.459742 1.291649,0.912468 1.880537,1.443363 1.44097,1.12791 0.41847,0.350263 4.01793,2.460008 0.49504,0.290155 1.04763,0.373079 1.61291,0.311206 0,0 -3.22878,-2.28505 -3.22878,-2.28505 z" />
    <path
       style="fill:#ffffff;fill-opacity:0.992958;fill-rule:evenodd;stroke:#ffffff;stroke-width:4.729;stroke-linecap:round;stroke-miterlimit:4;stroke-dasharray:none;stroke-dashoffset:0;stroke-opacity:1;paint-order:normal"
       id="path23970"
       d="m 100.71095,84.509463 c -1.042836,1.111896 -2.239284,2.04733 -3.478608,2.92693 -0.924547,0.631743 -1.98565,0.972584 -3.071646,1.198829 -0.422246,0.08254 -0.828574,0.225293 -1.239189,0.350486 0,0 3.245456,2.212935 3.245456,2.212935 v 0 c 0.40065,-0.124632 0.801433,-0.251007 1.213432,-0.333996 1.109382,-0.280848 2.183095,-0.669534 3.112065,-1.35821 1.23858,-0.911577 2.41407,-1.894292 3.56979,-2.907734 0,0 -3.3513,-2.08924 -3.3513,-2.08924 z" />
  </g>
  <ellipse
     style="fill:#10a27e;fill-opacity:1;fill-rule:evenodd;stroke:#c062ce;stroke-width:7.99568;stroke-linecap:round;stroke-miterlimit:4;stroke-dasharray:none;stroke-dashoffset:0;stroke-opacity:0;paint-order:normal"
     id="path8703"
     cx="144.0359"
     cy="182.50784"
     rx="6.0021625"
     ry="6.002161"
     inkscape:transform-center-x="17.799515"
     inkscape:transform-center-y="-4.6170463" />
  <g
     id="g8649"
     transform="matrix(0.56872272,0,0,0.53673065,41.75315,71.355979)"
     style="fill:#000000;fill-opacity:1;stroke:none">
    <path
       style="fill:#000000;stroke:none;stroke-width:0.264999;paint-order:stroke markers fill;fill-opacity:1"
       d="m 92.38838,172.01496 c 19.63683,-0.24647 37.6485,-12.02442 43.59139,-31.50685 2.79037,-9.14762 16.57072,-13.0953 20.72892,-0.031 4.8462,15.2258 -27.46828,60.08861 -62.127269,58.71713 -36.632646,-1.44958 -69.557288,-35.84975 -68.628418,-59.77488 1.836197,-9.48899 12.625519,-15.18045 20.684189,-0.85067 10.748245,19.11235 25.99077,33.4118 45.751188,33.4463 z"
       id="path3306"
       sodipodi:nodetypes="cssscscc" />
    <rect
       style="fill:#000000;stroke:none;stroke-width:0.264999;paint-order:stroke markers fill;fill-opacity:1"
       id="rect3328"
       width="27.944511"
       height="37.25935"
       x="81.68396"
       y="187.01326"
       ry="7.4863009" />
  </g>
  <path
     style="fill:#ffffff;fill-opacity:1;fill-rule:evenodd;stroke:#ffffff;stroke-width:5.929;stroke-linecap:round;stroke-dasharray:none;stroke-opacity:1"
     id="path2094"
     d="m 159.79001,138.2299 c 0.796,-2.53304 1.41771,-5.12124 1.80083,-7.75013 0.25787,-1.76943 0.42913,-3.7596 0.60149,-5.53847 0.28473,-2.82351 0.27845,-5.6567 0.0822,-8.4833 0,0 -3.33708,-1.66253 -3.33708,-1.66253 v 0 c 0.31563,2.82984 0.40897,5.67496 0.13055,8.51591 -0.42192,4.40528 -0.91836,8.87783 -2.66316,12.99106 0,0 3.38518,1.92746 3.38518,1.92746 z" />
  <path
     style="fill:#ffffff;fill-opacity:1;fill-rule:evenodd;stroke:#ffffff;stroke-width:5.929;stroke-linecap:round;stroke-dasharray:none;stroke-opacity:1"
     id="path2096"
     d="m 159.40706,127.60611 c -0.81227,-1.46661 -1.35723,-3.05779 -1.99154,-4.60359 -0.48347,-1.17818 -0.56055,-1.28647 -1.11928,-2.42143 -0.79291,-1.5065 -1.56872,-3.02636 -2.11362,-4.64319 -0.3148,-0.93408 -0.39521,-1.30471 -0.63808,-2.23562 -0.27046,-1.301 -0.51864,-2.60332 -0.86744,-3.88607 0,0 -3.52371,-1.67199 -3.52371,-1.67199 v 0 c 0.39595,1.28774 0.69381,2.59451 0.95278,3.91682 0.31412,1.1688 0.62044,2.34774 1.06598,3.47557 0.47461,1.20143 1.09472,2.34285 1.68531,3.48883 0.53408,1.04975 0.686,1.30048 1.14328,2.39388 0.63481,1.51789 1.17314,3.07639 1.81736,4.59081 0,0 3.58896,1.59598 3.58896,1.59598 z" />
  <path
     style="fill:#ffffff;fill-opacity:1;fill-rule:evenodd;stroke:#ffffff;stroke-width:5.929;stroke-linecap:round;stroke-dasharray:none;stroke-opacity:1"
     id="path2098"
     d="m 129.10029,87.708165 c -1.22208,0.418631 -2.53161,0.68879 -3.82795,0.545772 -0.43759,-0.04828 -0.86689,-0.154194 -1.30033,-0.231291 -2.21556,-0.51177 -4.29979,-1.461643 -6.39852,-2.318726 -0.19828,-0.09608 -0.7852,-0.399198 -0.59484,-0.288251 5.83771,3.402399 3.27205,2.151936 2.53883,1.277639 -0.31423,-0.374693 -0.503,-0.82159 -0.68368,-1.268794 -0.19083,-0.527417 -0.30964,-1.099396 0.1742,-1.485188 1.20389,0.336153 2.32122,0.92833 3.44816,1.460455 2.32287,1.220843 -1.10463,-0.699392 -1.68894,-0.98992 -0.26156,-0.130051 0.481,0.332042 0.71249,0.510191 0.29743,0.228893 0.68159,0.52732 0.88579,0.863227 -0.81732,-1.379972 -0.3608,-0.398873 1.96394,0.74712 0.47491,0.234108 -0.89803,-0.561206 -1.34888,-0.83882 -0.52345,-0.322307 -1.04355,-0.650293 -1.574,-0.960929 -4.2468,-2.486957 -3.45802,-2.041999 -6.24842,-3.55572 -2.00264,-1.090477 -3.95586,-1.704787 -6.20366,-1.971939 -0.1064,-0.003 -0.89298,-0.105947 -1.04909,0.128071 -0.34282,0.513893 0.17002,0.90795 0.55207,1.1308 4.09214,2.386939 3.4045,2.037837 6.48376,3.149151 3.21633,1.211056 6.52631,2.14078 9.78587,3.220669 -0.73995,-0.623083 1.37592,0.695767 1.05444,0.481425 -1.12306,-0.748776 -2.18067,-1.612918 -3.38504,-2.222359 -0.30763,-0.155668 -0.68947,-0.01103 -1.03423,-0.01389 -2.46093,-0.02037 -0.88526,0.02551 -3.4511,-0.08692 -1.34864,-0.165598 -2.77678,-0.134446 -4.09149,-0.53734 -0.24254,-0.07433 -0.91074,-0.44635 -0.68912,-0.322906 3.09876,1.726097 2.62554,2.729974 3.13162,1.55592 1.77937,-0.763715 3.81926,-0.447008 5.66522,-0.143367 0.71975,0.168936 1.23436,0.257749 1.90795,0.520496 0.14619,0.05702 0.54519,0.308417 0.41803,0.216474 -3.10831,-2.247437 -2.41107,-2.104139 -4.87942,-2.735284 -1.81667,-0.514403 -3.65607,-0.94171 -5.50947,-1.29953 0,0 3.06853,2.318861 3.06853,2.318861 v 0 c 1.84513,0.346261 3.67277,0.776254 5.47505,1.303981 0.3466,0.08964 0.68871,0.198948 1.03981,0.268922 0.25008,0.04984 0.93921,0.270828 0.75971,0.08972 -2.21162,-2.231295 -2.81201,-2.474786 -5.30826,-2.954772 -1.27111,-0.180456 -2.50167,-0.325014 -3.78884,-0.229777 -0.54653,0.04044 -1.26361,0.119332 -1.78361,0.359637 -0.18427,0.08516 -0.33361,0.231386 -0.50041,0.347078 -0.0739,0.162875 -0.35926,0.374507 -0.22157,0.488622 1.08808,0.901761 2.35296,1.568432 3.57011,2.286521 0.38482,0.227034 1.38456,0.349713 1.73581,0.395275 1.14359,0.148341 1.79455,0.172947 2.97656,0.254042 0.77999,0.03503 2.75663,0.131789 3.55388,0.136652 0.42129,0.0026 1.50635,0.307239 1.26334,-0.03691 -1.19503,-1.692389 -2.38014,-2.24079 -3.99826,-2.780977 -3.23296,-0.987997 -6.48469,-1.921748 -9.64425,-3.134027 -0.63493,-0.246276 -1.89358,-1.419759 -1.90479,-0.73883 -0.0125,0.759777 1.28797,0.809897 1.89612,1.265486 0.19162,0.143542 -0.4164,-0.240802 -0.64056,-0.324906 -0.0787,-0.02952 -0.28142,0.06875 -0.25194,-0.0099 0.10456,-0.279085 0.98565,0.289798 0.89344,-0.03402 2.15197,0.286472 4.08324,0.938607 5.99482,1.988778 0.48655,0.265107 1.8044,1.229066 1.45963,0.795319 -0.37015,-0.465672 -1.42759,-1.482487 -1.54179,-0.898689 -0.11509,0.58833 1.02624,0.620064 1.53393,0.938858 2.03207,1.275998 2.91875,2.046295 5.58816,3.300449 0.24732,0.1162 0.54485,-0.0428 0.81727,-0.0642 0.008,-0.103248 0.0621,-0.213378 0.0242,-0.30975 -0.12828,-0.325938 -0.64702,-0.741164 -0.87398,-0.926277 -1.68842,-1.377082 -3.65351,-2.379586 -5.60598,-3.332515 -0.50844,-0.239289 -1.10304,-0.523115 -1.6196,-0.751228 -0.51634,-0.228018 -1.18857,-0.597297 -1.78519,-0.530519 -0.14146,0.01585 -0.27037,0.08915 -0.40556,0.133728 -0.52929,0.546209 -0.61417,1.194835 -0.36289,1.912522 0.13612,0.384191 0.64986,1.65435 0.96223,1.857624 2.711,1.764197 2.62907,1.701504 4.36915,2.461871 2.09173,0.821484 4.16056,1.75867 6.37605,2.196637 0.45219,0.06883 0.90088,0.16713 1.35659,0.206484 1.38098,0.119258 2.78254,-0.163857 4.07749,-0.628738 0,0 -3.31857,-2.157214 -3.31857,-2.157214 z" />
  <g
     id="g8645"
     transform="matrix(0.57787474,0,0,0.54531612,41.780378,71.211379)"
     style="fill:#000000;fill-opacity:1;stroke:none">
    <rect
       style="fill:#000000;stroke:none;stroke-width:0.264999;paint-order:stroke markers fill;fill-opacity:1"
       id="rect1568"
       width="49.79855"
       height="82.758751"
       x="67.7117"
       y="65.203857"
       ry="7.4863009" />
    <path
       style="fill:#000000;stroke:none;stroke-width:0.264999;paint-order:stroke markers fill;fill-opacity:1"
       id="path1570"
       sodipodi:type="arc"
       sodipodi:cx="92.431839"
       sodipodi:cy="72.369118"
       sodipodi:rx="24.720144"
       sodipodi:ry="16.480097"
       sodipodi:start="0"
       sodipodi:end="6.2818306"
       sodipodi:arc-type="slice"
       d="M 117.15198,72.369118 A 24.720144,16.480097 0 0 1 92.440211,88.849214 24.720144,16.480097 0 0 1 67.7117,72.380281 24.720144,16.480097 0 0 1 92.406723,55.889029 24.720144,16.480097 0 0 1 117.15196,72.346792 l -24.720121,0.02233 z" />
    <path
       style="fill:#000000;stroke:none;stroke-width:0.264999;paint-order:stroke markers fill;fill-opacity:1"
       id="path1570-7"
       sodipodi:type="arc"
       sodipodi:cx="92.431725"
       sodipodi:cy="140.79735"
       sodipodi:rx="24.720144"
       sodipodi:ry="16.480097"
       sodipodi:start="0"
       sodipodi:end="6.2818306"
       sodipodi:arc-type="slice"
       d="m 117.15187,140.79735 a 24.720144,16.480097 0 0 1 -24.711773,16.48009 24.720144,16.480097 0 0 1 -24.728511,-16.46893 24.720144,16.480097 0 0 1 24.695022,-16.49125 24.720144,16.480097 0 0 1 24.745242,16.45776 l -24.720125,0.0223 z" />
  </g>
</svg>
